# xmcd
#
# Track frame offsets: 
#        150
#        11945
#        32380
#        45317
#        58285
#        70077
#        85440
#        102042
#        116665
#        132590
#        146202
#        159157
#        169382
#        183032
#        205360
#        219672
#        246467
#        256140
#        268892
#        285655
#        298147
#        314265
#
# Disc length: 4410 seconds
#
# Revision: 1
# Processed by: cddbd v1.5.2PL0 Copyright (c) Steve Scherf et al.
# Submitted via: ExactAudioCopy v1.3
#
DISCID=56113816
DTITLE=Various Artist - Big Band Classics
DYEAR=1997
DGENRE=Big Band
TTITLE0=The Ted Heath Big Band - Opus 1
TTITLE1=The Don Lusher Big Band - Love for Sale
TTITLE2=Laurie Johnson's London Big Band with Maxine Daniels - The Lad
TTITLE2=y is a Tramp
TTITLE3=Kenny Baker and His Orchestra - Little Jazz
TTITLE4=The Ted Heath Band - Fine Romance
TTITLE5=The Colin Busby Big Swing Band - April in Paris
TTITLE6=Laurie Johnson's London Big Band - Embraceable You
TTITLE7=The Don Lusher Big Band - Cute
TTITLE8=The Colin Busby Big Swing Band - Woodchopper's Ball
TTITLE9=Kenny Baker and His Orchestra - Music Goes Round and Round
TTITLE10=Laurie Johnson's London Big Band - From This Moment On
TTITLE11=The Don Lusher Big Band - At Last
TTITLE12=The Colin Busby Big Swing Band - Begin the Beguine
TTITLE13=The Don Lusher Big Band - One O'Clock Jump
TTITLE14=The Ted Heath Band - Deep Night
TTITLE15=The Colin Busby Big Swing Band - Satin Doll
TTITLE16=Laurie Johnson's London Big Band - By Strauss
TTITLE17=The Colin Busby Big Swing Band - String of Pearls
TTITLE18=Kenny Baker and His Orchestra - Our Love is Here to Stay
TTITLE19=The Don Lusher Big Band - Don't Get Around Much Anymore
TTITLE20=The Ted Heath Band - Lullaby of Birdland
TTITLE21=The Don Lusher Big Band - Don't Be That Way
EXTD=
EXTT0=
EXTT1=
EXTT2=
EXTT3=
EXTT4=
EXTT5=
EXTT6=
EXTT7=
EXTT8=
EXTT9=
EXTT10=
EXTT11=
EXTT12=
EXTT13=
EXTT14=
EXTT15=
EXTT16=
EXTT17=
EXTT18=
EXTT19=
EXTT20=
EXTT21=
PLAYORDER=
